<?xml version="1.0" standalone="no"?>
<!DOCTYPE svg PUBLIC "-//W3C//DTD SVG 20010904//EN"
 "http://www.w3.org/TR/2001/REC-SVG-20010904/DTD/svg10.dtd">
<svg version="1.0" xmlns="http://www.w3.org/2000/svg"
 width="500.000000pt" height="500.000000pt" viewBox="0 0 500.000000 500.000000"
 preserveAspectRatio="xMidYMid meet">

<g transform="translate(0.000000,500.000000) scale(0.100000,-0.100000)"
fill="#000000" stroke="none">
<path d="M0 2500 l0 -2500 2500 0 2500 0 0 2500 0 2500 -2500 0 -2500 0 0
-2500z m1982 1126 c248 -45 369 -245 371 -611 0 -71 -3 -145 -7 -162 l-8 -33
-202 0 -203 0 20 58 c27 80 21 240 -12 298 -41 73 0 68 -676 74 l-610 5 -3
193 -2 192 627 0 c487 -1 645 -4 705 -14z m1368 -451 l0 -355 -195 0 -195 0 0
355 0 355 195 0 195 0 0 -355z m-2390 -533 c29 -14 36 -23 38 -53 2 -23 -3
-42 -12 -52 -14 -14 -14 -18 -1 -44 24 -45 19 -53 -28 -53 -38 0 -44 3 -54 30
-10 28 -15 30 -62 30 -50 0 -51 -1 -51 -30 0 -29 -2 -30 -45 -30 l-45 0 0 110
0 110 113 0 c87 0 120 -4 147 -18z m187 -14 l33 -32 33 32 c28 27 40 32 82 32
l49 0 -57 -58 c-55 -55 -57 -60 -57 -110 l0 -52 -45 0 -45 0 0 53 c0 51 0 53
-62 109 l-63 57 50 1 c42 0 54 -5 82 -32z m503 -75 l70 -108 -42 -3 c-34 -3
-46 1 -59 17 -14 17 -29 21 -83 21 -55 0 -67 -3 -76 -20 -8 -15 -21 -20 -56
-20 -25 0 -44 4 -42 8 2 5 32 54 68 110 l65 102 43 0 43 0 69 -107z m267 38
l58 -70 3 70 3 69 49 0 50 0 0 -110 0 -110 -57 0 -58 0 -60 73 -60 72 -3 -72
-3 -73 -44 0 -45 0 0 110 0 110 55 0 54 0 58 -69z m455 -13 l3 -83 83 -3 c80
-3 82 -3 82 -27 l0 -25 -130 0 -130 0 0 110 0 110 45 0 44 0 3 -82z m278 12
c0 -63 2 -71 25 -86 23 -15 27 -15 50 0 23 15 25 23 25 86 l0 70 46 0 46 0 -3
-85 c-3 -72 -7 -88 -27 -107 -20 -21 -32 -23 -112 -23 -80 0 -92 2 -112 23
-20 19 -24 35 -27 107 l-3 85 46 0 46 0 0 -70z m470 55 c26 -13 50 -42 50 -59
0 -12 -88 -5 -117 9 -54 27 -105 -11 -88 -66 10 -31 51 -42 88 -24 31 16 117
21 117 7 0 -4 -7 -17 -15 -28 -23 -34 -67 -47 -151 -42 -71 3 -78 6 -105 36
-49 55 -31 146 35 172 36 15 154 11 186 -5z m340 -10 c0 -23 -3 -24 -77 -27
-65 -3 -78 -6 -81 -20 -3 -16 5 -18 67 -18 64 0 71 -2 71 -20 0 -18 -7 -20
-71 -20 -62 0 -70 -2 -67 -17 3 -15 16 -18 86 -21 80 -3 82 -4 82 -27 l0 -25
-130 0 -130 0 0 110 0 110 125 0 125 0 0 -25z m225 -48 l60 -71 3 72 3 72 44
0 45 0 0 -110 0 -110 -57 1 -58 0 -55 69 c-30 38 -58 69 -62 69 -5 1 -8 -30
-8 -69 l0 -70 -45 0 -45 0 0 110 0 110 58 -1 57 0 60 -72z m475 -34 l70 -108
-42 -3 c-34 -3 -46 1 -59 17 -14 17 -29 21 -83 21 -55 0 -67 -3 -76 -20 -8
-15 -21 -20 -56 -20 -25 0 -44 4 -42 8 2 5 32 54 68 110 l65 102 43 0 43 0 69
-107z m-3180 -632 c0 -175 -3 -333 -6 -350 l-6 -31 -183 0 c-181 0 -183 0
-189 23 -3 12 -6 169 -6 350 l0 327 195 0 195 0 0 -319z m1246 6 c100 -172
184 -322 188 -335 l7 -22 -221 2 -221 3 -181 320 c-99 176 -183 325 -185 332
-4 10 40 13 213 13 l219 -1 181 -312z m1127 231 c10 -140 41 -207 112 -243 38
-19 63 -20 498 -23 l457 -3 0 -195 0 -195 -482 3 c-456 4 -487 5 -560 25 -153
43 -250 116 -316 241 -38 71 -77 215 -86 317 -4 39 -9 89 -12 113 l-5 42 194
0 194 0 6 -82z"/>
<path d="M798 2604 c-5 -4 -8 -16 -8 -26 0 -15 8 -18 54 -18 55 0 77 13 58 32
-13 13 -94 23 -104 12z"/>
<path d="M1517 2560 l-18 -30 35 0 c40 0 40 0 24 35 -14 32 -20 32 -41 -5z"/>
<path d="M4027 2560 l-18 -30 35 0 c40 0 40 0 24 35 -14 32 -20 32 -41 -5z"/>
</g>
</svg>
